<?xml version="1.0" standalone="no"?>
<!DOCTYPE svg PUBLIC "-//W3C//DTD SVG 20010904//EN"
 "http://www.w3.org/TR/2001/REC-SVG-20010904/DTD/svg10.dtd">
<svg version="1.0" xmlns="http://www.w3.org/2000/svg"
 width="1067.000000pt" height="1067.000000pt" viewBox="0 0 1067.000000 1067.000000"
 preserveAspectRatio="xMidYMid meet">
<metadata>
Created by potrace 1.14, written by Peter Selinger 2001-2017
</metadata>
<g transform="translate(0.000000,1067.000000) scale(0.100000,-0.100000)"
fill="#000000" stroke="none">
<path d="M1540 10655 c-309 -43 -578 -153 -830 -340 -360 -269 -606 -672 -686
-1125 -18 -101 -19 -250 -19 -3855 0 -3603 1 -3754 18 -3855 44 -248 161 -530
304 -730 271 -379 683 -639 1146 -723 l122 -22 3725 0 c3002 0 3742 3 3813 13
393 58 733 228 1012 507 279 279 449 619 507 1012 10 71 13 811 13 3813 l0
3725 -22 122 c-84 463 -345 875 -723 1146 -195 139 -469 254 -720 303 -91 18
-237 19 -3830 21 -3036 1 -3753 -1 -3830 -12z m4220 -2845 l0 -200 -250 0
-250 0 0 200 0 200 250 0 250 0 0 -200z m-3900 -215 l0 -386 127 3 127 3 220
383 219 382 269 0 c147 0 268 -2 268 -5 0 -3 -124 -221 -275 -486 l-274 -480
258 -472 c142 -260 266 -487 275 -505 l17 -32 -272 2 -272 3 -216 400 -217
400 -127 3 -127 3 0 -406 0 -405 -255 0 -255 0 0 990 0 990 255 0 255 0 0
-385z m4740 134 l0 -252 43 7 c23 4 87 15 142 24 71 11 165 16 320 17 210 0
223 -1 280 -24 83 -33 183 -133 216 -216 l24 -60 3 -612 3 -613 -251 0 -250 0
0 545 0 546 -24 24 c-15 15 -41 26 -72 31 -59 9 -287 -1 -371 -17 l-63 -11 0
-559 0 -559 -250 0 -250 0 0 990 0 990 250 0 250 0 0 -251z m-2025 -229 c83
-32 182 -132 216 -215 l24 -60 3 -612 3 -613 -251 0 -250 0 0 529 0 530 -24
28 -24 28 -129 -1 c-91 -1 -158 -7 -232 -23 -58 -12 -108 -24 -113 -27 -4 -3
-8 -243 -8 -535 l0 -529 -250 0 -250 0 0 750 0 750 222 -2 222 -3 9 -45 c17
-99 10 -94 75 -55 70 41 189 90 285 116 60 16 100 18 242 16 151 -3 177 -5
230 -27z m4527 0 c108 -33 185 -96 233 -190 43 -84 45 -108 45 -722 l0 -588
-219 0 c-243 0 -224 -6 -236 74 -4 25 -11 48 -15 51 -4 2 -40 -14 -81 -35 -41
-22 -123 -57 -184 -77 l-110 -38 -175 0 c-220 0 -260 13 -361 114 -102 103
-114 140 -114 371 0 172 2 189 24 245 33 83 133 183 216 216 59 23 68 24 408
27 l347 3 0 73 c0 65 -3 75 -26 97 -25 23 -32 24 -190 27 -91 2 -220 -2 -287
-8 -67 -6 -175 -14 -239 -17 l-118 -6 0 175 c0 175 0 176 23 182 13 3 113 13
222 21 110 9 202 18 204 21 2 2 131 4 287 4 253 0 289 -2 346 -20z m-3342
-780 l0 -720 -250 0 -250 0 0 530 0 530 -110 0 -110 0 0 190 0 190 360 0 360
0 0 -720z m-962 -1493 c-7 -13 -76 -121 -153 -240 l-140 -217 -187 0 -187 0
18 53 c32 90 139 391 146 410 7 16 28 17 261 17 l255 0 -13 -23z m-1178 -890
c0 -758 -1 -797 -20 -871 -47 -184 -149 -281 -340 -322 -69 -14 -582 -20 -687
-8 l-53 7 0 188 0 189 240 0 c269 0 295 5 330 62 19 32 20 49 20 591 l0 557
-185 0 -185 0 0 200 0 200 440 0 440 0 0 -793z m4410 -197 l0 -990 -219 0
-219 0 -11 50 c-6 28 -11 58 -11 65 0 8 -2 15 -5 15 -2 0 -44 -20 -92 -44 -48
-24 -133 -59 -188 -77 -99 -34 -101 -34 -290 -34 -175 0 -194 2 -247 23 -117
47 -213 169 -238 301 -16 87 -13 792 4 872 35 163 140 272 303 314 45 12 127
15 385 15 l328 0 0 240 0 240 250 0 250 0 0 -990z m-3410 -240 l0 -750 -250 0
-250 0 0 560 0 560 -110 0 -110 0 0 190 0 190 360 0 360 0 0 -750z m1660 561
l0 -190 -387 -368 -387 -368 387 -3 387 -2 0 -190 0 -190 -705 0 -705 0 0 189
0 190 388 368 389 368 -389 3 -388 2 0 190 0 190 705 0 705 0 0 -189z"/>
<path d="M8428 6584 c-36 -19 -48 -43 -48 -99 0 -97 39 -120 185 -112 90 5
283 38 306 53 5 3 9 43 9 90 l0 84 -212 0 c-168 -1 -219 -4 -240 -16z"/>
<path d="M7078 4263 c-15 -2 -39 -18 -53 -34 l-25 -31 0 -294 c0 -325 2 -340
60 -364 42 -18 225 -8 353 19 54 12 103 23 108 27 5 3 9 151 9 345 l0 339
-212 -1 c-117 -1 -225 -4 -240 -6z"/>
</g>
</svg>
