<?xml version="1.0" standalone="no"?>
<!DOCTYPE svg PUBLIC "-//W3C//DTD SVG 20010904//EN"
 "http://www.w3.org/TR/2001/REC-SVG-20010904/DTD/svg10.dtd">
<svg version="1.0" xmlns="http://www.w3.org/2000/svg"
 width="1067.000000pt" height="1067.000000pt" viewBox="0 0 1067.000000 1067.000000"
 preserveAspectRatio="xMidYMid meet">
<metadata>
Created by potrace 1.14, written by Peter Selinger 2001-2017
</metadata>
<g transform="translate(0.000000,1067.000000) scale(0.100000,-0.100000)"
fill="#000000" stroke="none">
<path d="M1540 10655 c-309 -43 -578 -153 -830 -340 -360 -269 -606 -672 -686
-1125 -18 -101 -19 -250 -19 -3855 0 -3603 1 -3754 18 -3855 44 -248 161 -530
304 -730 271 -379 683 -639 1146 -723 l122 -22 3725 0 c3002 0 3742 3 3813 13
393 58 733 228 1012 507 279 279 449 619 507 1012 10 71 13 811 13 3813 l0
3725 -22 122 c-84 463 -345 875 -723 1146 -195 139 -469 254 -720 303 -91 18
-237 19 -3830 21 -3036 1 -3753 -1 -3830 -12z m2459 -4145 c30 -39 57 -70 60
-70 3 1 30 32 60 70 l54 70 113 0 c63 0 114 -3 114 -6 0 -3 -48 -72 -106 -155
l-105 -149 -132 0 -132 1 -50 71 c-27 40 -76 109 -108 155 l-58 83 118 0 118
-1 54 -69z m1774 -328 c78 -38 115 -84 144 -178 16 -53 18 -99 18 -449 -1
-368 -2 -393 -21 -451 -30 -87 -65 -128 -142 -166 l-67 -33 -360 0 c-318 0
-366 2 -410 18 -101 35 -162 112 -184 232 -15 78 -15 732 0 810 24 133 88 206
209 239 45 12 119 15 400 13 l345 -2 68 -33z m-3950 -10 c79 -39 118 -86 145
-171 25 -81 25 -421 0 -502 -27 -85 -66 -132 -145 -171 l-68 -33 -287 -3 -288
-3 0 -185 0 -184 -165 0 -165 0 0 645 0 646 453 -3 452 -3 68 -33z m2787 -92
l0 -130 -195 0 -195 0 0 -515 0 -515 -162 2 -163 3 -3 513 -2 512 -190 0 -190
0 0 130 0 130 550 0 550 0 0 -130z m1788 -12 c27 -79 96 -279 153 -445 57
-166 107 -299 111 -295 4 4 70 189 147 412 77 223 145 420 151 438 l12 32 174
-2 c107 -2 174 -7 175 -13 0 -5 -107 -295 -238 -642 l-238 -633 -185 0 -185 0
-241 638 c-133 350 -239 640 -237 645 2 4 82 7 177 7 l174 0 50 -142z m3308
-503 l242 -640 -176 -3 c-96 -1 -179 1 -183 5 -3 5 -24 56 -44 116 l-38 107
-227 0 -227 0 -40 -112 -40 -113 -181 -3 -181 -2 13 37 c23 64 447 1186 462
1221 l13 32 183 -2 182 -3 242 -640z m-7186 155 c0 -539 -1 -530 68 -550 23
-7 101 -10 205 -8 l169 3 24 28 24 28 0 490 0 489 171 0 171 0 -4 -517 c-4
-490 -5 -521 -25 -579 -29 -87 -64 -128 -141 -166 l-67 -33 -315 -3 c-321 -4
-387 1 -455 35 -40 20 -93 71 -112 108 -40 76 -43 113 -43 643 l0 512 165 0
165 0 0 -480z m5270 230 l0 -251 82 3 82 3 141 247 140 247 178 1 178 0 -25
-42 c-14 -24 -95 -166 -180 -316 l-155 -274 178 -324 179 -324 -177 0 -176 0
-140 258 -140 257 -83 3 -82 3 0 -261 0 -260 -165 0 -165 0 0 640 0 640 165 0
165 0 0 -250z"/>
<path d="M5140 5953 c-8 -3 -25 -15 -37 -26 l-23 -20 0 -347 0 -347 26 -24
c25 -24 27 -24 236 -24 l210 0 24 28 24 28 0 339 0 339 -24 28 -24 28 -199 2
c-109 1 -205 -1 -213 -4z"/>
<path d="M1180 5750 l0 -201 211 3 211 3 24 28 c23 27 24 35 24 167 0 132 -1
140 -24 167 l-24 28 -211 3 -211 3 0 -201z"/>
<path d="M9208 5601 c-38 -108 -68 -200 -68 -204 0 -4 63 -7 140 -7 77 0 140
3 140 7 0 13 -131 388 -138 395 -4 4 -37 -82 -74 -191z"/>
</g>
</svg>
