<?xml version="1.0" standalone="no"?>
<!DOCTYPE svg PUBLIC "-//W3C//DTD SVG 20010904//EN"
 "http://www.w3.org/TR/2001/REC-SVG-20010904/DTD/svg10.dtd">
<svg version="1.0" xmlns="http://www.w3.org/2000/svg"
 width="1067.000000pt" height="1067.000000pt" viewBox="0 0 1067.000000 1067.000000"
 preserveAspectRatio="xMidYMid meet">
<metadata>
Created by potrace 1.14, written by Peter Selinger 2001-2017
</metadata>
<g transform="translate(0.000000,1067.000000) scale(0.100000,-0.100000)"
fill="#000000" stroke="none">
<path d="M1540 10655 c-309 -43 -578 -153 -830 -340 -360 -269 -606 -672 -686
-1125 -18 -101 -19 -250 -19 -3855 0 -3603 1 -3754 18 -3855 44 -248 161 -530
304 -730 271 -379 683 -639 1146 -723 l122 -22 3725 0 c3002 0 3742 3 3813 13
393 58 733 228 1012 507 279 279 449 619 507 1012 10 71 13 811 13 3813 l0
3725 -22 122 c-84 463 -345 875 -723 1146 -195 139 -469 254 -720 303 -91 18
-237 19 -3830 21 -3036 1 -3753 -1 -3830 -12z m2831 -3273 c110 -29 189 -73
268 -147 120 -114 177 -258 188 -477 l6 -118 -482 0 c-547 0 -495 10 -465 -91
28 -96 126 -169 227 -169 57 0 129 32 174 76 l45 46 225 -23 c123 -13 229 -27
235 -30 15 -10 -44 -93 -121 -169 -80 -79 -159 -122 -277 -152 -78 -20 -115
-23 -289 -23 -223 1 -287 11 -404 67 -83 39 -193 147 -244 238 -140 253 -103
596 86 796 97 103 219 167 368 193 92 17 372 6 460 -17z m1764 13 c92 -24 181
-93 224 -173 12 -23 13 -22 85 45 83 77 153 115 244 133 87 18 232 8 304 -20
76 -28 159 -105 193 -176 50 -105 55 -168 55 -640 l0 -434 -245 0 -245 0 0
394 c0 391 0 393 -22 426 -38 55 -73 75 -132 75 -66 -1 -119 -32 -149 -89 -21
-40 -22 -50 -25 -423 l-3 -383 -244 0 -245 0 0 378 c0 225 -4 392 -10 414 -13
44 -68 95 -113 103 -79 15 -168 -40 -197 -121 -10 -30 -14 -124 -17 -406 l-4
-368 -240 0 -239 0 0 625 0 625 225 0 225 0 0 -86 0 -86 65 61 c109 101 206
139 360 140 51 1 117 -6 150 -14z m1380 -2394 c175 -46 310 -142 406 -288 46
-71 107 -208 97 -218 -4 -4 -449 -105 -463 -105 -2 0 -16 27 -31 60 -30 68
-84 122 -153 153 -65 30 -197 30 -263 0 -101 -46 -171 -141 -199 -268 -19 -86
-16 -342 4 -428 32 -130 81 -197 177 -241 35 -16 65 -20 135 -20 109 0 175 25
231 87 40 44 88 141 99 200 4 20 11 39 15 42 7 5 458 -130 468 -139 10 -10
-60 -192 -100 -261 -60 -102 -167 -203 -270 -253 -136 -66 -193 -77 -418 -77
-205 0 -254 7 -392 51 -213 69 -390 268 -462 518 -83 285 -46 643 90 863 110
178 291 292 538 339 109 21 388 12 491 -15z m-5335 -216 l0 -215 -275 0 -275
0 0 -650 0 -650 -270 0 -270 0 0 650 0 650 -275 0 -275 0 0 215 0 215 820 0
820 0 0 -215z m1492 192 c186 -44 309 -167 347 -345 24 -114 5 -259 -46 -353
-56 -103 -203 -215 -309 -235 -41 -8 -44 -19 -6 -29 55 -13 114 -58 171 -130
60 -75 87 -123 250 -438 l92 -177 -306 2 -307 3 -149 275 c-82 151 -164 296
-181 322 -41 59 -93 89 -169 95 l-59 6 0 -352 0 -351 -270 0 -270 0 0 866 0
865 573 -4 c481 -3 583 -6 639 -20z m1218 -544 c0 -361 4 -582 10 -605 17 -60
69 -120 130 -150 151 -75 334 -29 405 102 l30 55 3 583 3 582 269 0 270 0 0
-558 c0 -574 -3 -620 -42 -742 -27 -86 -47 -123 -103 -197 -87 -117 -204 -192
-361 -234 -158 -42 -514 -35 -687 12 -112 32 -183 74 -272 164 -90 90 -130
161 -167 290 -22 78 -23 93 -26 673 l-3 592 271 0 270 0 0 -567z m4002 247 l3
-320 274 320 274 320 359 0 360 0 -317 -325 -317 -326 20 -32 c49 -84 626
-1024 634 -1034 8 -10 -58 -13 -324 -13 l-333 0 -180 350 c-99 192 -183 350
-186 350 -4 0 -65 -63 -138 -139 l-131 -139 0 -211 0 -211 -270 0 -270 0 0
865 0 865 270 0 270 0 2 -320z"/>
<path d="M4029 7117 c-20 -8 -50 -23 -66 -35 -36 -26 -80 -104 -89 -160 l-7
-42 235 0 235 0 -8 43 c-17 93 -51 147 -112 178 -51 27 -140 34 -188 16z"/>
<path d="M3000 4476 l0 -176 119 0 c134 0 264 21 300 48 68 51 88 130 52 206
-17 34 -33 50 -69 67 -42 21 -65 24 -224 27 l-178 4 0 -176z"/>
</g>
</svg>
