<?xml version="1.0" standalone="no"?>
<!DOCTYPE svg PUBLIC "-//W3C//DTD SVG 20010904//EN"
 "http://www.w3.org/TR/2001/REC-SVG-20010904/DTD/svg10.dtd">
<svg version="1.0" xmlns="http://www.w3.org/2000/svg"
 width="700.000000pt" height="700.000000pt" viewBox="0 0 700.000000 700.000000"
 preserveAspectRatio="xMidYMid meet">
<metadata>
Created by potrace 1.14, written by Peter Selinger 2001-2017
</metadata>
<g transform="translate(0.000000,700.000000) scale(0.100000,-0.100000)"
fill="#000000" stroke="none">
<path d="M978 6984 c-48 -7 -129 -27 -179 -44 -418 -140 -719 -496 -784 -927
-22 -147 -22 -4879 0 -5026 27 -180 109 -378 214 -517 62 -82 198 -214 276
-267 139 -94 316 -163 482 -188 145 -22 4878 -22 5023 -1 305 46 576 210 765
461 101 135 183 335 210 512 22 147 22 4879 0 5026 -76 502 -472 897 -975 973
-138 20 -4898 19 -5032 -2z m1771 -2015 c132 -21 241 -99 299 -215 40 -80 55
-152 56 -259 l1 -90 -383 -3 -383 -2 7 -48 c18 -128 76 -212 182 -264 64 -32
70 -33 187 -32 111 0 128 3 220 35 55 20 108 39 118 43 16 8 18 2 15 -70 l-3
-79 -60 -22 c-211 -76 -458 -68 -608 20 -151 89 -227 240 -227 451 0 180 45
308 142 406 108 109 270 157 437 129z m1244 -4 c97 -25 174 -92 207 -181 l11
-27 28 44 c39 63 114 125 180 150 81 32 207 32 278 0 104 -46 171 -150 193
-299 5 -37 10 -212 10 -389 l0 -323 -84 0 -85 0 -3 363 -3 363 -30 59 c-38 74
-90 105 -175 105 -135 0 -225 -69 -264 -200 -13 -44 -16 -111 -16 -372 l0
-318 -84 0 -85 0 -3 363 -3 362 -30 60 c-38 76 -88 105 -180 105 -108 0 -199
-61 -247 -165 -22 -49 -23 -60 -26 -387 l-3 -338 -85 0 -84 0 0 505 0 505 85
0 85 0 0 -76 0 -77 34 45 c84 109 239 160 379 123z m1199 -1562 c47 -16 107
-42 132 -57 l46 -27 0 -94 0 -94 -78 53 c-105 71 -181 97 -309 103 -213 11
-360 -64 -442 -225 -85 -168 -83 -481 4 -653 76 -149 239 -229 443 -216 118 7
206 37 302 102 l80 54 0 -94 0 -95 -92 -44 c-116 -55 -208 -76 -338 -76 -323
0 -550 168 -632 467 -17 64 -21 106 -21 233 0 127 4 169 21 233 64 233 234
403 452 452 45 10 108 14 205 11 125 -2 149 -6 227 -33z m-3774 -60 l-3 -78
-242 -3 -243 -2 0 -600 0 -600 -90 0 -90 0 0 600 0 600 -240 0 -240 0 0 80 0
80 575 0 576 0 -3 -77z m841 48 c152 -53 221 -138 241 -297 22 -171 -39 -308
-166 -370 l-54 -26 44 -28 c24 -16 64 -57 89 -92 45 -63 267 -484 267 -506 0
-8 -29 -12 -95 -12 l-94 0 -115 228 c-66 129 -131 243 -151 265 -61 66 -109
80 -270 81 l-140 1 -3 -287 -2 -288 -90 0 -90 0 0 681 0 681 283 -4 c261 -4
287 -6 346 -27z m861 -388 c0 -230 5 -458 10 -507 26 -225 127 -313 349 -304
126 5 198 37 248 111 59 87 63 132 63 651 l0 466 95 0 95 0 0 -442 c0 -244 -5
-474 -10 -513 -30 -208 -125 -336 -293 -395 -87 -31 -284 -39 -381 -16 -138
33 -246 115 -300 229 -51 109 -56 167 -56 672 l0 465 90 0 90 0 0 -417z m2762
132 l3 -284 302 285 303 285 115 -3 116 -3 -336 -315 -336 -314 363 -363 363
-363 -120 0 -120 0 -327 327 -328 328 0 -328 0 -327 -90 0 -90 0 0 680 0 680
90 0 90 0 2 -285z"/>
<path d="M2609 4829 c-72 -8 -143 -43 -185 -93 -38 -44 -74 -131 -74 -176 l0
-30 296 0 297 0 -6 50 c-3 27 -16 71 -27 97 -52 118 -152 169 -301 152z"/>
<path d="M1810 3030 l0 -242 173 4 c191 4 226 13 280 78 55 65 64 193 20 281
-24 46 -36 58 -87 84 -58 29 -65 30 -223 34 l-163 3 0 -242z"/>
</g>
</svg>
